HIERARCHY
ROOT Hips
{
	OFFSET 0.00 0.00 0.00
	CHANNELS 6 Xposition Yposition Zposition Xrotation Yrotation Zrotation
	JOINT Spine
	{
		OFFSET 0.00000 1.70439 2.55658
		CHANNELS 3 Xrotation Yrotation Zrotation
		JOINT Spine1
		{
			OFFSET 0.00000 0.59193 3.35699
			CHANNELS 3 Xrotation Yrotation Zrotation
			JOINT Spine2
			{
				OFFSET 0.00000 0.29709 3.39581
				CHANNELS 3 Xrotation Yrotation Zrotation
				JOINT Spine3
				{
					OFFSET 0.00000 0.00000 3.40878
					CHANNELS 3 Xrotation Yrotation Zrotation
					JOINT Neck
					{
						OFFSET 0.00000 -1.27829 8.94804
						CHANNELS 3 Xrotation Yrotation Zrotation
						JOINT Head
						{
							OFFSET 0.00000 -0.81390 4.61586
							CHANNELS 3 Xrotation Yrotation Zrotation
							End Site
							{
								OFFSET 0.00000 0.00000 5.51796
							}
						}
					}
					JOINT RightShoulder
					{
						OFFSET -1.18875 -1.98125 6.41924
						CHANNELS 3 Xrotation Yrotation Zrotation
						JOINT RightArm
						{
							OFFSET -5.90412 -0.00000 0.00000
							CHANNELS 3 Xrotation Yrotation Zrotation
							JOINT RightForeArm
							{
								OFFSET -11.94674 -0.00000 0.00000
								CHANNELS 3 Xrotation Yrotation Zrotation
								JOINT RightHand
								{
									OFFSET -10.17720 -0.00000 0.00000
									CHANNELS 3 Xrotation Yrotation Zrotation
									JOINT RightHandEnd
									{
										OFFSET -2.84518 -0.00000 0.00000
										CHANNELS 3 Xrotation Yrotation Zrotation
										End Site
										{
											OFFSET -2.84518 -0.00000 0.00000
										}
									}
									JOINT RightHandThumb1
									{
										OFFSET -1.13807 -1.89678 -0.75871
										CHANNELS 3 Xrotation Yrotation Zrotation
										End Site
										{
											OFFSET -2.74823 -0.73639 0.00000
										}
									}
								}
							}
						}
					}
					JOINT LeftShoulder
					{
						OFFSET 1.18875 -1.98125 6.41924
						CHANNELS 3 Xrotation Yrotation Zrotation
						JOINT LeftArm
						{
							OFFSET 5.90412 0.00000 0.00000
							CHANNELS 3 Xrotation Yrotation Zrotation
							JOINT LeftForeArm
							{
								OFFSET 11.94674 0.00000 0.00000
								CHANNELS 3 Xrotation Yrotation Zrotation
								JOINT LeftHand
								{
									OFFSET 10.17720 0.00000 0.00000
									CHANNELS 3 Xrotation Yrotation Zrotation
									JOINT LeftHandEnd
									{
										OFFSET 2.84518 0.00000 0.00000
										CHANNELS 3 Xrotation Yrotation Zrotation
										End Site
										{
											OFFSET 2.84518 0.00000 0.00000
										}
									}
									JOINT LeftHandThumb1
									{
										OFFSET 1.13807 -1.89678 -0.75871
										CHANNELS 3 Xrotation Yrotation Zrotation
										End Site
										{
											OFFSET 2.74823 -0.73639 0.00000
										}
									}
								}
							}
						}
					}
				}
			}
		}
	}
	JOINT RightUpLeg
	{
		OFFSET -3.52662 0.00000 -1.03025
		CHANNELS 3 Xrotation Yrotation Zrotation
		JOINT RightLeg
		{
			OFFSET 0.00000 0.00000 -17.80159
			CHANNELS 3 Xrotation Yrotation Zrotation
			JOINT RightFoot
			{
				OFFSET 0.00000 0.00000 -16.85992
				CHANNELS 3 Xrotation Yrotation Zrotation
				JOINT RightToeBase
				{
					OFFSET -0.00000 -5.42953 -1.97619
					CHANNELS 3 Xrotation Yrotation Zrotation
					End Site
					{
						OFFSET 0.00000 -2.85300 0.00000
					}
				}
			}
		}
	}
	JOINT LeftUpLeg
	{
		OFFSET 3.52662 0.00000 -1.03025
		CHANNELS 3 Xrotation Yrotation Zrotation
		JOINT LeftLeg
		{
			OFFSET 0.00000 0.00000 -17.80159
			CHANNELS 3 Xrotation Yrotation Zrotation
			JOINT LeftFoot
			{
				OFFSET 0.00000 0.00000 -16.85992
				CHANNELS 3 Xrotation Yrotation Zrotation
				JOINT LeftToeBase
				{
					OFFSET -0.00000 -5.42953 -1.97619
					CHANNELS 3 Xrotation Yrotation Zrotation
					End Site
					{
						OFFSET 0.00000 -2.85300 0.00000
					}
				}
			}
		}
	}
}
MOTION
Frames: 9
Frame Time: 0.008342
 3.3518 -5.9771 38.1554 -0.1309 1.2723 179.7943 0.5719 -0.7790 -0.6656 0.5276 -0.0858 -0.0937 -0.5654 -1.1035 -0.2354 -0.1843 -0.2570 0.1689 1.6871 1.1108 -0.3286 -0.1830 -0.0270 -0.6636 1.5456 13.9638 0.6003 -3.9014 -3.0702 -5.6920 -0.0000 -0.0000 9.8511 -4.1290 16.7631 0.1642 -0.0000 -0.0000 0.0000 -0.0000 0.0000 0.0000 3.2043 -10.3862 -0.6775 -2.8924 9.8965 5.9371 0.0000 -0.0000 -12.8357 -4.6593 -9.2914 1.0841 0.0000 -0.0000 0.0000 0.0000 -0.0000 0.0000 -4.5890 5.7489 -38.9480 15.3156 0.0000 0.0000 -13.9256 -2.7478 3.7199 -12.9186 0.0000 -0.0000 -2.5985 -4.2004 17.2544 10.6497 -0.0000 0.0000 -6.9973 6.6031 1.2753 0.9144 -0.0000 -0.0000
 3.3357 -5.9681 38.1551 -0.1377 1.2840 179.7602 0.5616 -0.7902 -0.6628 0.5277 -0.0919 -0.0944 -0.5849 -1.0677 -0.2053 -0.1902 -0.2529 0.1625 1.6621 1.1390 -0.3031 -0.1808 -0.0313 -0.6670 1.5006 14.0272 0.6460 -3.8959 -3.0111 -5.7290 -0.0000 0.0000 9.8274 -4.0811 16.7254 0.1621 -0.0000 -0.0000 0.0000 -0.0000 -0.0000 0.0000 3.1420 -10.3753 -0.6523 -2.8993 9.8503 5.9704 -0.0000 0.0000 -12.8142 -4.6340 -9.3171 1.0778 -0.0000 -0.0000 0.0000 0.0000 -0.0000 -0.0000 -4.5976 5.7819 -38.9280 15.2891 0.0000 -0.0000 -13.7555 -2.6146 3.7238 -12.2562 0.0000 0.0000 -2.5884 -4.1555 17.1955 10.6523 -0.0000 -0.0000 -7.0343 6.5612 1.3512 0.9076 -0.0000 0.0000
 3.3135 -5.9554 38.1547 -0.1427 1.2987 179.7141 0.5516 -0.8079 -0.6599 0.5277 -0.0965 -0.0931 -0.6112 -1.0227 -0.1662 -0.1981 -0.2460 0.1525 1.6248 1.1784 -0.2674 -0.1779 -0.0363 -0.6709 1.4394 14.1133 0.7095 -3.8879 -2.9276 -5.7791 -0.0000 0.0000 9.7970 -4.0172 16.6804 0.1611 0.0000 0.0000 0.0000 -0.0000 0.0000 0.0000 3.0574 -10.3618 -0.6166 -2.9084 9.7885 6.0196 0.0000 -0.0000 -12.7836 -4.6006 -9.3571 1.0692 -0.0000 -0.0000 -0.0000 -0.0000 0.0000 -0.0000 -4.6060 5.8261 -38.8897 15.2578 0.0000 -0.0000 -13.5377 -2.4585 3.7110 -11.3548 -0.0000 0.0000 -2.5694 -4.0962 17.1247 10.6550 0.0000 0.0000 -7.0832 6.5059 1.4454 0.8989 -0.0000 0.0000
 3.2853 -5.9392 38.1545 -0.1454 1.3148 179.6573 0.5420 -0.8312 -0.6571 0.5276 -0.1026 -0.0914 -0.6425 -0.9676 -0.1189 -0.2081 -0.2372 0.1393 1.5741 1.2307 -0.2204 -0.1744 -0.0428 -0.6754 1.3638 14.2222 0.7906 -3.8792 -2.8191 -5.8407 -0.0000 0.0000 9.7590 -3.9365 16.6294 0.1640 -0.0000 -0.0000 0.0000 -0.0000 0.0000 0.0000 2.9516 -10.3450 -0.5704 -2.9211 9.7108 6.0874 0.0000 -0.0000 -12.7447 -4.5598 -9.4109 1.0580 -0.0000 0.0000 -0.0000 -0.0000 0.0000 -0.0000 -4.6131 5.8804 -38.8346 15.2229 -0.0000 0.0000 -13.2775 -2.2908 3.6800 -10.2305 -0.0000 0.0000 -2.5408 -4.0248 17.0477 10.6581 -0.0000 0.0000 -7.1433 6.4381 1.5510 0.8881 0.0000 -0.0000
 3.2516 -5.9194 38.1543 -0.1430 1.3313 179.5911 0.5351 -0.8616 -0.6551 0.5279 -0.1089 -0.0881 -0.6785 -0.9034 -0.0655 -0.2203 -0.2264 0.1230 1.5110 1.2950 -0.1625 -0.1714 -0.0494 -0.6807 1.2768 14.3536 0.8883 -3.8698 -2.6884 -5.9125 -0.0000 0.0000 9.7145 -3.8433 16.5735 0.1715 -0.0000 0.0000 0.0000 -0.0000 -0.0000 0.0000 2.8281 -10.3263 -0.5136 -2.9372 9.6199 6.1731 -0.0000 0.0000 -12.6967 -4.5137 -9.4776 1.0431 0.0000 0.0000 0.0000 -0.0000 -0.0000 0.0000 -4.6149 5.9428 -38.7621 15.1847 0.0000 0.0000 -12.9843 -2.1245 3.6274 -8.9202 0.0000 -0.0000 -2.4998 -3.9434 16.9702 10.6607 0.0000 0.0000 -7.2127 6.3603 1.6616 0.8760 -0.0000 -0.0000
 3.2133 -5.8961 38.1544 -0.1317 1.3461 179.5180 0.5341 -0.8998 -0.6525 0.5298 -0.1157 -0.0868 -0.7193 -0.8299 -0.0058 -0.2336 -0.2160 0.1046 1.4351 1.3720 -0.0953 -0.1682 -0.0573 -0.6865 1.1832 14.5067 0.9971 -3.8604 -2.5404 -5.9898 -0.0000 -0.0000 9.6638 -3.7403 16.5131 0.1834 0.0000 0.0000 0.0000 -0.0000 -0.0000 -0.0000 2.6895 -10.3071 -0.4496 -2.9558 9.5194 6.2780 0.0000 0.0000 -12.6415 -4.4648 -9.5545 1.0257 0.0000 0.0000 -0.0000 0.0000 -0.0000 -0.0000 -4.6056 6.0104 -38.6772 15.1432 0.0000 0.0000 -12.6694 -1.9739 3.5554 -7.4785 -0.0000 0.0000 -2.4422 -3.8560 16.8991 10.6616 0.0000 0.0000 -7.2889 6.2754 1.7689 0.8630 -0.0000 -0.0000
 3.1712 -5.8704 38.1547 -0.1170 1.3598 179.4412 0.5338 -0.9414 -0.6511 0.5316 -0.1242 -0.0844 -0.7607 -0.7534 0.0558 -0.2486 -0.2037 0.0832 1.3485 1.4597 -0.0191 -0.1655 -0.0656 -0.6927 1.0850 14.6768 1.1178 -3.8492 -2.3784 -6.0723 -0.0000 -0.0000 9.6084 -3.6326 16.4479 0.2022 -0.0000 0.0000 -0.0000 -0.0000 0.0000 0.0000 2.5426 -10.2881 -0.3771 -2.9764 9.4137 6.3984 -0.0000 0.0000 -12.5792 -4.4162 -9.6387 1.0052 0.0000 0.0000 0.0000 -0.0000 -0.0000 0.0000 -4.5913 6.0830 -38.5816 15.1025 -0.0000 0.0000 -12.3485 -1.8516 3.4640 -5.9745 -0.0000 0.0000 -2.3761 -3.7644 16.8396 10.6617 -0.0000 0.0000 -7.3688 6.1869 1.8663 0.8498 0.0000 -0.0000
 3.1267 -5.8423 38.1554 -0.0932 1.3698 179.3644 0.5385 -0.9888 -0.6497 0.5357 -0.1336 -0.0839 -0.8033 -0.6722 0.1176 -0.2640 -0.1929 0.0611 1.2538 1.5564 0.0630 -0.1639 -0.0740 -0.6990 0.9901 14.8625 1.2416 -3.8381 -2.2121 -6.1537 0.0000 0.0000 9.5490 -3.5231 16.3806 0.2260 0.0000 -0.0000 0.0000 -0.0000 -0.0000 -0.0000 2.3930 -10.2717 -0.2999 -2.9991 9.3086 6.5324 -0.0000 -0.0000 -12.5121 -4.3679 -9.7259 0.9831 -0.0000 -0.0000 0.0000 -0.0000 -0.0000 -0.0000 -4.5624 6.1559 -38.4854 15.0601 0.0000 0.0000 -12.0348 -1.7692 3.3610 -4.4812 -0.0000 0.0000 -2.2953 -3.6739 16.7982 10.6593 -0.0000 -0.0000 -7.4492 6.0992 1.9451 0.8370 -0.0000 0.0000
 3.0811 -5.8123 38.1565 -0.0509 1.3757 179.2917 0.5589 -1.0381 -0.6498 0.5398 -0.1430 -0.0826 -0.8444 -0.5942 0.1752 -0.2799 -0.1827 0.0377 1.1544 1.6603 0.1493 -0.1624 -0.0832 -0.7054 0.9023 15.0621 1.3666 -3.8255 -2.0496 -6.2334 0.0000 -0.0000 9.4875 -3.4180 16.3106 0.2551 -0.0000 -0.0000 0.0000 0.0000 0.0000 0.0000 2.2495 -10.2610 -0.2189 -3.0246 9.2121 6.6764 -0.0000 -0.0000 -12.4418 -4.3241 -9.8116 0.9596 -0.0000 0.0000 -0.0000 -0.0000 -0.0000 -0.0000 -4.5051 6.2269 -38.4017 15.0139 0.0000 0.0000 -11.7415 -1.7352 3.2579 -3.0690 0.0000 0.0000 -2.1894 -3.5869 16.7803 10.6508 0.0000 0.0000 -7.5257 6.0167 1.9975 0.8253 0.0000 -0.0000
